HIERARCHY
ROOT pelvis
{
  OFFSET 0 100 0
  CHANNELS 6 Xposition Yposition Zposition Zrotation Xrotation Yrotation
  JOINT pelvis_right_femur
  {
    OFFSET -10.78128 -3.44521 -0.5502486
    CHANNELS 3 Zrotation Xrotation Yrotation
    JOINT right_femur_tibia
    {
      OFFSET -0.8047443 -44.0398 -0.1307829
      CHANNELS 3 Zrotation Xrotation Yrotation
      JOINT right_tibia_foot
      {
        OFFSET 3.006224 -47.83518 -5
        CHANNELS 3 Zrotation Xrotation Yrotation
        End Site
        {
          OFFSET 0 -5 15
        }
      }
    }
  }
  JOINT pelvis_left_femur
  {
    OFFSET 10.78128 -3.44521 -0.5502486
    CHANNELS 3 Zrotation Xrotation Yrotation
    JOINT left_femur_tibia
    {
      OFFSET 0.8047443 -44.0398 -0.1307829
      CHANNELS 3 Zrotation Xrotation Yrotation
      JOINT left_tibia_foot
      {
        OFFSET -4.370144 -48.10324 -4.275266
        CHANNELS 3 Zrotation Xrotation Yrotation
        End Site
        {
          OFFSET 0 -5 15
        }
      }
    }
  }
  JOINT pelvis_spine1
  {
    OFFSET 0 6.468898 -3.129235
    CHANNELS 3 Zrotation Xrotation Yrotation
    JOINT spine1
    {
      OFFSET 0 23.15396 4.99043
      CHANNELS 3 Zrotation Xrotation Yrotation
      JOINT spine2
      {
        OFFSET 0 20.79997 -5.064912
        CHANNELS 3 Zrotation Xrotation Yrotation
        JOINT neck
        {
          OFFSET 0 14.38658 9.616178
          CHANNELS 3 Zrotation Xrotation Yrotation
          End Site
          {
            OFFSET 0 20 0
          }
        }
      }
      JOINT right_manubrium
      {
        OFFSET -5.722621 16.35077 3.967754
        CHANNELS 3 Zrotation Xrotation Yrotation
        JOINT right_clavicle
        {
          OFFSET -13.16364 1.694482 -4.693211
          CHANNELS 3 Zrotation Xrotation Yrotation
          JOINT right_humerus
          {
            OFFSET -28.5034 -0.3100689 -2.792744
            CHANNELS 3 Zrotation Xrotation Yrotation
            JOINT right_radius
            {
              OFFSET -25.15693 0.02248979 -1.271978
              CHANNELS 3 Zrotation Xrotation Yrotation
              End Site
              {
                OFFSET -15 0 0
              }
            }
          }
        }
      }
      JOINT left_manubrium
      {
        OFFSET 5.722621 16.35077 3.967754
        CHANNELS 3 Zrotation Xrotation Yrotation
        JOINT left_clavicle
        {
          OFFSET 13.16364 1.694482 -4.693211
          CHANNELS 3 Zrotation Xrotation Yrotation
          JOINT left_humerus
          {
            OFFSET 29.39168 -1.063119 -2.237045
            CHANNELS 3 Zrotation Xrotation Yrotation
            JOINT left_radius
            {
              OFFSET 24.59957 -0.9528479 0.9047498
              CHANNELS 3 Zrotation Xrotation Yrotation
              End Site
              {
                OFFSET 15 -0 -0
              }
            }
          }
        }
      }
    }
  }
}
MOTION
Frames: 16
Frame Time: 0.0416666666667
26.46228 105.2276 232.8095 1.665405 -6.066639 0.6877619 1.331982 9.737654 6.73222 -2.627348e-09 33.57514 1.155399e-08 6.259147 -11.19044 -2.619734 -3.53498 -15.98025 -9.644662 9.14567e-09 19.81541 7.909085e-10 -3.667529 -9.2071 20.13669 -1.584618 -0.5853246 8.307608 -0.9854543 9.504023 -2.935009 2.739106 21.49381 5.673531 1.848205 -17.49363 8.57163 2.202678 -21.21802 10.82168 80.89482 24.34112 -6.361768 8.090349e-10 -1.606869e-09 24.76586 -23.08373 12.80617 12.89912 3.997111 -14.03808 -2.887276 -93.01882 21.77515 25.0228 1.290254e-09 -3.175612e-09 -11.78013 -0.1269483 7.243486 14.14678
27.6531 105.5756 239.0974 1.933747 -6.528983 0.923192 0.7412662 8.396481 6.768207 -4.222023e-09 40.3338 1.247858e-08 6.264228 -9.065505 -3.162776 -4.610192 -12.86977 -10.64278 1.215381e-08 21.11163 2.419784e-09 -3.345546 -9.482413 20.03395 -1.895296 -0.7883827 7.855305 -1.104766 9.535387 -3.022316 2.727763 21.74643 5.826836 1.890445 -17.31022 8.724166 2.515185 -20.36121 10.73016 81.29691 24.51122 -7.187107 -4.919814e-10 -2.107851e-09 23.26525 -22.62384 12.51755 12.32113 3.780548 -13.96453 -3.050586 -91.97658 22.26935 23.81497 1.296655e-09 -3.102419e-09 -11.76552 0.128656 7.517559 13.89607
28.81944 106.3029 245.1222 2.216842 -7.208061 1.428698 0.1703709 5.376059 6.678522 -6.171732e-09 47.75377 1.394002e-08 6.24992 -7.265129 -4.144887 -5.54549 -9.065539 -11.44167 9.756464e-09 21.55545 4.894787e-09 -2.902773 -10.35205 19.708 -2.285469 -0.673888 7.172933 -1.171776 9.596324 -3.303715 2.707968 22.15378 5.968321 1.813981 -16.98728 8.951884 2.777477 -19.42095 10.66063 82.39031 24.83834 -8.385587 -8.720991e-10 -2.115244e-09 21.60155 -22.15655 12.45236 11.73148 3.579228 -14.12993 -3.400294 -90.77432 22.90023 21.92289 8.462008e-10 -2.067469e-09 -12.28165 0.4090672 7.743382 13.64013
29.91734 107.232 250.724 2.358571 -7.778717 2.161395 -0.07526499 0.7657187 6.481706 -6.058945e-09 53.16685 1.382327e-08 5.902157 -6.682117 -5.341404 -6.071061 -4.724239 -12.03322 2.617501e-09 21.21299 9.638697e-09 -2.509803 -11.52908 19.05688 -2.572895 -0.3201862 6.279452 -1.045427 9.55053 -3.807288 2.664291 22.53918 6.004376 1.603198 -16.62778 9.151135 2.972274 -18.42877 10.56823 83.62054 25.34111 -9.881707 -1.470222e-10 -2.317793e-09 19.80582 -21.17884 12.54221 10.94192 3.444661 -14.52326 -3.773019 -89.24169 23.67978 19.47735 -2.1808e-10 -4.267857e-10 -13.29173 0.7074859 8.05021 13.28587
30.93495 108.1466 255.9534 2.368198 -8.053218 3.05935 -0.02271017 -4.542626 6.08292 -4.28577e-09 55.47821 1.235243e-08 5.29158 -6.708559 -6.435534 -6.223649 -0.443823 -12.37337 -6.204783e-09 19.96196 1.420175e-08 -2.238739 -12.93613 18.25251 -2.721863 0.137374 5.333055 -0.7894103 9.391588 -4.385988 2.631863 22.83471 5.983971 1.376833 -16.38603 9.316738 2.998926 -17.52151 10.43874 84.91158 25.79626 -11.43556 1.056011e-09 -2.362328e-09 18.10187 -20.09756 12.65538 10.19747 3.486722 -15.07451 -4.105791 -87.7636 24.3043 16.89839 -1.319296e-09 1.292534e-09 -14.60044 1.103245 8.41163 12.74498
31.87286 108.807 260.9845 2.315578 -8.007417 4.032877 0.217366 -9.74811 5.518882 -1.898152e-09 53.87794 1.009675e-08 4.648421 -7.08724 -7.296778 -6.107402 3.39601 -12.43902 -1.342926e-08 17.84369 1.624322e-08 -2.07363 -14.55192 17.60321 -2.783208 0.5784171 4.473523 -0.4630472 9.124357 -4.931286 2.645555 23.0196 5.930866 1.205797 -16.23243 9.4368 2.82022 -16.71766 10.25775 86.10199 26.07644 -12.88344 2.137388e-09 -1.993511e-09 16.58071 -19.21932 12.73257 9.631544 3.8077 -15.73388 -4.333746 -86.46764 24.60974 14.27461 -1.961393e-09 2.589288e-09 -16.17723 1.594367 8.757705 11.99194
32.69629 109.0026 265.758 2.278044 -7.788586 4.980251 0.5407116 -14.72633 4.944548 -5.259244e-11 48.93599 7.340276e-09 3.865549 -7.804446 -7.866178 -5.91164 6.724015 -12.47864 -2.142364e-08 15.42828 1.847328e-08 -1.734835 -16.32545 17.41404 -2.843462 1.015705 3.726826 -0.08624235 8.841702 -5.405992 2.660001 23.09528 5.896238 1.155734 -16.11929 9.469263 2.599525 -15.94564 10.08926 86.70673 26.34209 -14.19588 3.851464e-09 -1.764292e-09 15.05913 -18.31805 12.62569 9.059233 4.370053 -16.51128 -4.483851 -85.00306 24.71258 11.49547 -2.014466e-09 3.711095e-09 -17.99799 2.210522 9.185373 10.96427
33.4332 108.7493 270.7422 2.179657 -7.26785 5.81546 0.9170487 -18.67343 4.23796 1.379318e-09 41.74512 5.429937e-09 3.356822 -8.325686 -8.299403 -5.630327 9.866233 -12.18135 -1.983702e-08 13.47023 1.446682e-08 -1.774105 -17.85366 17.18657 -2.840338 1.180564 3.128668 0.2897285 8.418984 -5.822845 2.755125 23.15666 5.8139 1.142367 -16.06588 9.48033 2.213954 -15.13349 9.822388 87.65899 26.42356 -15.52997 3.153521e-09 -8.581249e-10 13.54064 -17.882 12.59312 8.749723 5.107142 -17.26287 -4.421108 -84.05007 24.46465 8.808673 -1.678136e-09 3.429781e-09 -19.95217 2.863965 9.456612 9.90267
34.04248 108.0169 275.7934 2.139176 -6.813181 6.500116 1.257279 -22.01231 3.61701 1.688997e-09 33.92422 3.69907e-09 2.677903 -9.166198 -8.561564 -5.424513 12.54282 -11.98422 -1.805875e-08 12.32232 1.164579e-08 -1.588147 -19.18188 17.29858 -2.886781 1.293053 2.642801 0.6578531 8.054964 -6.181328 2.81781 23.24769 5.733953 1.192352 -15.98776 9.409381 1.905657 -14.31985 9.615498 88.22461 26.60376 -16.80593 2.506155e-09 -3.712447e-10 11.91316 -17.29114 12.40081 8.295366 5.860016 -18.07125 -4.322294 -82.94965 24.19859 6.092851 -1.100485e-09 3.038871e-09 -21.95496 3.620051 9.862335 8.675414
34.50115 106.9437 280.832 2.101525 -6.429395 7.01822 1.548389 -24.56285 3.056282 1.446043e-09 27.12228 2.2536e-09 1.775569 -10.15482 -8.690228 -5.277223 14.81555 -11.89423 -1.510481e-08 12.3798 1.039576e-08 -1.366293 -20.00024 17.37266 -2.925712 1.314889 2.227077 0.9927516 7.720942 -6.484148 2.838135 23.38641 5.629719 1.249272 -15.91992 9.270668 1.69147 -13.50707 9.447885 88.54857 26.88764 -17.98485 1.412605e-09 -3.994135e-10 10.18957 -16.48788 12.08223 7.694719 6.457962 -18.81352 -4.190496 -81.75539 23.99012 3.583106 -6.1899e-10 2.573429e-09 -23.72393 4.447327 10.38534 7.39581
34.8525 105.7783 286.0565 1.979955 -6.071852 7.395175 1.839057 -25.79801 2.563688 1.347324e-09 22.38926 1.480734e-09 0.8454321 -11.0644 -8.794371 -5.091886 16.66004 -11.77289 -7.446425e-09 13.75765 8.081177e-09 -1.514722 -20.00474 17.03425 -2.869045 1.146862 1.887555 1.25943 7.347325 -6.711397 2.878921 23.58494 5.430246 1.227941 -15.89295 9.120551 1.482932 -12.76759 9.255941 89.08331 27.09801 -18.95684 -1.14208e-09 -2.962598e-10 8.633125 -15.68916 11.81032 7.130997 6.785695 -19.29851 -3.975142 -80.97284 23.86576 1.748486 -4.759283e-10 1.722343e-09 -24.81998 5.183129 10.88806 6.333331
35.16913 104.8497 291.6906 1.79168 -5.884855 7.710393 2.117235 -25.78754 2.313531 1.809334e-09 21.36859 9.366255e-10 0.04175042 -11.27626 -9.041273 -4.939333 18.46444 -11.77237 3.372635e-09 16.63902 5.359884e-09 -2.090068 -19.16026 16.33037 -2.718656 0.7957276 1.56836 1.426887 7.020257 -6.855927 2.978948 23.84901 5.162755 1.132952 -15.92638 9.035336 1.36105 -12.10047 9.056297 90.08512 27.15822 -19.76818 -4.462873e-09 1.116453e-10 7.312326 -14.96499 11.66546 6.661255 6.749902 -19.41914 -3.737032 -80.87643 23.92997 0.8605851 -7.170068e-10 7.4529e-10 -24.81953 5.67466 11.30445 5.720106
35.48455 104.3767 297.6703 1.618085 -5.997699 7.977204 2.481798 -24.39307 2.472817 2.189211e-09 22.87043 4.206388e-11 -0.7814875 -10.97192 -9.291568 -4.799329 19.43948 -11.92348 1.281537e-08 21.11423 2.509092e-09 -2.672227 -17.59045 15.83534 -2.51289 0.420658 1.378513 1.500842 6.900304 -6.847458 3.108511 24.07883 4.860125 1.055831 -15.98813 8.93881 1.374952 -11.63922 8.939117 90.82185 27.13863 -20.15092 -6.869763e-09 7.151167e-10 6.39591 -14.22511 11.51674 6.227506 6.405101 -19.23361 -3.546328 -81.21973 24.13601 1.018667 -9.977263e-10 6.57813e-11 -23.61067 5.910391 11.6861 5.467611
35.79921 104.475 303.8872 1.423351 -6.354216 8.131139 3.103214 -21.8564 3.027732 2.93979e-09 24.91065 -1.229023e-09 -1.682304 -10.63521 -9.477067 -4.571891 19.2123 -12.0999 2.109815e-08 27.50202 -2.509683e-09 -3.312163 -15.47156 15.67798 -2.192925 0.1481835 1.381652 1.532527 6.961576 -6.6782 3.271794 24.286 4.52846 1.030292 -16.11241 8.811399 1.482581 -11.40087 8.933003 91.21992 27.08308 -20.12736 -8.157418e-09 1.365439e-09 5.920099 -13.44577 11.34276 5.81586 5.888106 -18.84295 -3.366109 -82.10119 24.47077 2.107103 -1.319309e-09 -5.175605e-10 -21.52956 5.902844 12.04583 5.523734
36.09274 105.0721 310.1067 1.39384 -7.078307 8.120401 3.736875 -18.07969 3.791507 2.542554e-09 26.62402 -2.116809e-09 -2.494975 -10.67256 -9.523704 -4.364386 16.99053 -12.1497 2.749014e-08 34.90646 -1.144669e-08 -3.721889 -13.35822 16.3327 -1.934236 0.1628313 1.696748 1.455468 7.234484 -6.283033 3.466413 24.62804 4.231307 1.098929 -16.18216 8.676514 1.611981 -11.47996 9.09122 91.29219 27.0589 -19.53187 -8.069899e-09 2.389795e-09 6.069029 -12.99074 11.11444 5.577802 5.368549 -18.37827 -3.24144 -83.60634 24.90011 3.824853 -1.260112e-09 -7.676343e-10 -19.04034 5.698429 12.37344 5.808724
36.26648 105.8637 315.687 1.586395 -8.127868 7.890601 4.182469 -14.0656 4.607452 3.355889e-10 26.90432 -2.998817e-09 -3.415863 -11.51972 -9.245586 -4.209113 12.69698 -12.2352 2.043554e-08 41.10978 -1.317956e-08 -3.414491 -11.84769 17.9517 -1.840326 0.6402209 2.254216 1.290615 7.748162 -5.68609 3.570799 24.94784 4.06665 1.304354 -16.11927 8.471577 1.793113 -11.94413 9.45269 90.09411 27.18713 -18.19175 -4.593562e-09 2.604281e-09 6.827182 -12.64627 10.6221 5.411302 4.979436 -18.00558 -3.293886 -84.75524 25.31161 5.65579 -7.421816e-10 2.731861e-10 -16.66992 5.483304 12.77385 5.976933
